<svg xmlns="http://www.w3.org/2000/svg" xmlns:xlink="http://www.w3.org/1999/xlink" width="24" height="24" viewBox="0 0 24 24">
    <defs>
        <path id="a" d="M17.153 15.094h-1.084l-.385-.37a8.88 8.88 0 0 0 2.155-5.805A8.92 8.92 0 0 0 8.919 0 8.92 8.92 0 0 0 0 8.92a8.92 8.92 0 0 0 8.92 8.919c2.209 0 4.24-.81 5.804-2.155l.37.385v1.084L21.955 24 24 21.955l-6.847-6.86zm-8.234 0A6.167 6.167 0 0 1 2.744 8.92 6.167 6.167 0 0 1 8.92 2.744a6.167 6.167 0 0 1 6.175 6.175 6.167 6.167 0 0 1-6.175 6.175z"/>
        <path id="c" d="M0 0h24v24H0z"/>
    </defs>
    <g fill="none" fill-rule="evenodd">
        <path d="M0 0h24v24H0z"/>
        <mask id="b" fill="#fff">
            <use xlink:href="#a"/>
        </mask>
        <g mask="url(#b)">
            <use fill="#949494" xlink:href="#c"/>
            <path stroke="#949494" d="M.5.5h23v23H.5z"/>
        </g>
    </g>
</svg>
